<svg width="101" height="27" viewBox="0 0 101 27" fill="none" xmlns="http://www.w3.org/2000/svg">
<path d="M11.5145 26.432C9.42655 26.432 7.56655 25.916 5.93455 24.884C4.30255 23.852 3.01855 22.364 2.08255 20.42C1.17055 18.452 0.714547 16.112 0.714547 13.4C0.714547 10.688 1.17055 8.36 2.08255 6.416C3.01855 4.448 4.30255 2.948 5.93455 1.916C7.56655 0.883999 9.42655 0.368 11.5145 0.368C13.6025 0.368 15.4625 0.883999 17.0945 1.916C18.7265 2.948 19.9985 4.448 20.9105 6.416C21.8465 8.36 22.3145 10.688 22.3145 13.4C22.3145 16.112 21.8465 18.452 20.9105 20.42C19.9985 22.364 18.7265 23.852 17.0945 24.884C15.4625 25.916 13.6025 26.432 11.5145 26.432ZM11.5145 21.5C13.0505 21.5 14.2505 20.84 15.1145 19.52C16.0025 18.2 16.4465 16.16 16.4465 13.4C16.4465 10.64 16.0025 8.6 15.1145 7.28C14.2505 5.96 13.0505 5.3 11.5145 5.3C10.0025 5.3 8.80255 5.96 7.91455 7.28C7.05055 8.6 6.61855 10.64 6.61855 13.4C6.61855 16.16 7.05055 18.2 7.91455 19.52C8.80255 20.84 10.0025 21.5 11.5145 21.5ZM54.0635 6.632V26H48.4475V18.8C46.8155 19.616 45.0155 20.024 43.0475 20.024C40.4315 20.024 38.4515 19.436 37.1075 18.26C35.7875 17.06 35.1275 15.212 35.1275 12.716V6.632H40.7435V12.356C40.7435 13.532 41.0435 14.384 41.6435 14.912C42.2675 15.44 43.1555 15.704 44.3075 15.704C45.7715 15.704 47.1515 15.392 48.4475 14.768V6.632H54.0635ZM78.2839 16.388C78.2839 16.46 78.2479 16.964 78.1759 17.9H63.5239C63.7879 19.1 64.4119 20.048 65.3959 20.744C66.3799 21.44 67.6039 21.788 69.0679 21.788C70.0759 21.788 70.9639 21.644 71.7319 21.356C72.5239 21.044 73.2559 20.564 73.9279 19.916L76.9159 23.156C75.0919 25.244 72.4279 26.288 68.9239 26.288C66.7399 26.288 64.8079 25.868 63.1279 25.028C61.4479 24.164 60.1519 22.976 59.2399 21.464C58.3279 19.952 57.8719 18.236 57.8719 16.316C57.8719 14.42 58.3159 12.716 59.2039 11.204C60.1159 9.668 61.3519 8.48 62.9119 7.64C64.4959 6.776 66.2599 6.344 68.2039 6.344C70.0999 6.344 71.8159 6.752 73.3519 7.568C74.8879 8.384 76.0879 9.56 76.9519 11.096C77.8399 12.608 78.2839 14.372 78.2839 16.388ZM68.2399 10.592C66.9679 10.592 65.8999 10.952 65.0359 11.672C64.1719 12.392 63.6439 13.376 63.4519 14.624H72.9919C72.7999 13.4 72.2719 12.428 71.4079 11.708C70.5439 10.964 69.4879 10.592 68.2399 10.592ZM100.989 6.632V26H95.3729V11.24H89.2529L89.0729 14.66C88.9769 17.204 88.7369 19.316 88.3529 20.996C87.9689 22.676 87.3449 23.996 86.4809 24.956C85.6169 25.916 84.4169 26.396 82.8809 26.396C82.0649 26.396 81.0929 26.252 79.9649 25.964L80.2529 21.356C80.6369 21.404 80.9129 21.428 81.0809 21.428C81.9209 21.428 82.5449 21.128 82.9529 20.528C83.3849 19.904 83.6729 19.124 83.8169 18.188C83.9609 17.228 84.0689 15.968 84.1409 14.408L84.4289 6.632H100.989Z" fill="white"/>
</svg>
