<svg width="113" height="27" viewBox="0 0 113 27" fill="none" xmlns="http://www.w3.org/2000/svg">
<path d="M10.8974 0.799998V26H5.06544V5.48H0.0254375V0.799998H10.8974ZM23.9151 10.268C27.4671 10.268 30.0831 10.976 31.7631 12.392C33.4671 13.808 34.3191 15.704 34.3191 18.08C34.3191 19.616 33.9351 21.02 33.1671 22.292C32.3991 23.54 31.2231 24.548 29.6391 25.316C28.0791 26.06 26.1471 26.432 23.8431 26.432C22.0671 26.432 20.3151 26.204 18.5871 25.748C16.8831 25.268 15.4311 24.596 14.2311 23.732L16.5351 19.268C17.4951 19.988 18.5991 20.552 19.8471 20.96C21.0951 21.344 22.3791 21.536 23.6991 21.536C25.1631 21.536 26.3151 21.248 27.1551 20.672C27.9951 20.096 28.4151 19.292 28.4151 18.26C28.4151 17.18 27.9711 16.364 27.0831 15.812C26.2191 15.26 24.7071 14.984 22.5471 14.984H16.1031L17.3991 0.799998H32.7711V5.48H22.2591L21.8631 10.268H23.9151ZM65.6006 6.632V26H59.9846V18.8C58.3526 19.616 56.5526 20.024 54.5846 20.024C51.9686 20.024 49.9886 19.436 48.6446 18.26C47.3246 17.06 46.6646 15.212 46.6646 12.716V6.632H52.2806V12.356C52.2806 13.532 52.5806 14.384 53.1806 14.912C53.8046 15.44 54.6926 15.704 55.8446 15.704C57.3086 15.704 58.6886 15.392 59.9846 14.768V6.632H65.6006ZM89.821 16.388C89.821 16.46 89.785 16.964 89.713 17.9H75.061C75.325 19.1 75.949 20.048 76.933 20.744C77.917 21.44 79.141 21.788 80.605 21.788C81.613 21.788 82.501 21.644 83.269 21.356C84.061 21.044 84.793 20.564 85.465 19.916L88.453 23.156C86.629 25.244 83.965 26.288 80.461 26.288C78.277 26.288 76.345 25.868 74.665 25.028C72.985 24.164 71.689 22.976 70.777 21.464C69.865 19.952 69.409 18.236 69.409 16.316C69.409 14.42 69.853 12.716 70.741 11.204C71.653 9.668 72.889 8.48 74.449 7.64C76.033 6.776 77.797 6.344 79.741 6.344C81.637 6.344 83.353 6.752 84.889 7.568C86.425 8.384 87.625 9.56 88.489 11.096C89.377 12.608 89.821 14.372 89.821 16.388ZM79.777 10.592C78.505 10.592 77.437 10.952 76.573 11.672C75.709 12.392 75.181 13.376 74.989 14.624H84.529C84.337 13.4 83.809 12.428 82.945 11.708C82.081 10.964 81.025 10.592 79.777 10.592ZM112.526 6.632V26H106.91V11.24H100.79L100.61 14.66C100.514 17.204 100.274 19.316 99.89 20.996C99.506 22.676 98.882 23.996 98.018 24.956C97.154 25.916 95.954 26.396 94.418 26.396C93.602 26.396 92.63 26.252 91.502 25.964L91.79 21.356C92.174 21.404 92.45 21.428 92.618 21.428C93.458 21.428 94.082 21.128 94.49 20.528C94.922 19.904 95.21 19.124 95.354 18.188C95.498 17.228 95.606 15.968 95.678 14.408L95.966 6.632H112.526Z" fill="white"/>
</svg>
