<svg width="124" height="27" viewBox="0 0 124 27" fill="none" xmlns="http://www.w3.org/2000/svg">
<path d="M13.3342 11.06C15.5422 11.42 17.2342 12.248 18.4102 13.544C19.5862 14.816 20.1742 16.4 20.1742 18.296C20.1742 19.76 19.7902 21.116 19.0222 22.364C18.2542 23.588 17.0782 24.572 15.4942 25.316C13.9342 26.06 12.0142 26.432 9.7342 26.432C7.9582 26.432 6.2062 26.204 4.4782 25.748C2.7742 25.268 1.3222 24.596 0.122203 23.732L2.3902 19.268C3.3502 19.988 4.4542 20.552 5.7022 20.96C6.9742 21.344 8.2702 21.536 9.5902 21.536C11.0542 21.536 12.2062 21.26 13.0462 20.708C13.8862 20.132 14.3062 19.328 14.3062 18.296C14.3062 16.232 12.7342 15.2 9.5902 15.2H6.9262V11.348L12.1102 5.48H1.3822V0.799998H19.0222V4.58L13.3342 11.06ZM33.6669 26.432C31.5789 26.432 29.7189 25.916 28.0869 24.884C26.4549 23.852 25.1709 22.364 24.2349 20.42C23.3229 18.452 22.8669 16.112 22.8669 13.4C22.8669 10.688 23.3229 8.36 24.2349 6.416C25.1709 4.448 26.4549 2.948 28.0869 1.916C29.7189 0.883999 31.5789 0.368 33.6669 0.368C35.7549 0.368 37.6149 0.883999 39.2469 1.916C40.8789 2.948 42.1509 4.448 43.0629 6.416C43.9989 8.36 44.4669 10.688 44.4669 13.4C44.4669 16.112 43.9989 18.452 43.0629 20.42C42.1509 22.364 40.8789 23.852 39.2469 24.884C37.6149 25.916 35.7549 26.432 33.6669 26.432ZM33.6669 21.5C35.2029 21.5 36.4029 20.84 37.2669 19.52C38.1549 18.2 38.5989 16.16 38.5989 13.4C38.5989 10.64 38.1549 8.6 37.2669 7.28C36.4029 5.96 35.2029 5.3 33.6669 5.3C32.1549 5.3 30.9549 5.96 30.0669 7.28C29.2029 8.6 28.7709 10.64 28.7709 13.4C28.7709 16.16 29.2029 18.2 30.0669 19.52C30.9549 20.84 32.1549 21.5 33.6669 21.5ZM76.2158 6.632V26H70.5998V18.8C68.9678 19.616 67.1678 20.024 65.1998 20.024C62.5838 20.024 60.6038 19.436 59.2598 18.26C57.9398 17.06 57.2798 15.212 57.2798 12.716V6.632H62.8958V12.356C62.8958 13.532 63.1958 14.384 63.7958 14.912C64.4198 15.44 65.3078 15.704 66.4598 15.704C67.9238 15.704 69.3038 15.392 70.5998 14.768V6.632H76.2158ZM100.436 16.388C100.436 16.46 100.4 16.964 100.328 17.9H85.6762C85.9402 19.1 86.5642 20.048 87.5482 20.744C88.5322 21.44 89.7562 21.788 91.2202 21.788C92.2282 21.788 93.1162 21.644 93.8842 21.356C94.6762 21.044 95.4082 20.564 96.0802 19.916L99.0682 23.156C97.2442 25.244 94.5802 26.288 91.0762 26.288C88.8922 26.288 86.9602 25.868 85.2802 25.028C83.6002 24.164 82.3042 22.976 81.3922 21.464C80.4802 19.952 80.0242 18.236 80.0242 16.316C80.0242 14.42 80.4682 12.716 81.3562 11.204C82.2682 9.668 83.5042 8.48 85.0642 7.64C86.6482 6.776 88.4122 6.344 90.3562 6.344C92.2522 6.344 93.9682 6.752 95.5042 7.568C97.0402 8.384 98.2402 9.56 99.1042 11.096C99.9922 12.608 100.436 14.372 100.436 16.388ZM90.3922 10.592C89.1202 10.592 88.0522 10.952 87.1882 11.672C86.3242 12.392 85.7962 13.376 85.6042 14.624H95.1442C94.9522 13.4 94.4242 12.428 93.5602 11.708C92.6962 10.964 91.6402 10.592 90.3922 10.592ZM123.141 6.632V26H117.525V11.24H111.405L111.225 14.66C111.129 17.204 110.889 19.316 110.505 20.996C110.121 22.676 109.497 23.996 108.633 24.956C107.769 25.916 106.569 26.396 105.033 26.396C104.217 26.396 103.245 26.252 102.117 25.964L102.405 21.356C102.789 21.404 103.065 21.428 103.233 21.428C104.073 21.428 104.697 21.128 105.105 20.528C105.537 19.904 105.825 19.124 105.969 18.188C106.113 17.228 106.221 15.968 106.293 14.408L106.581 6.632H123.141Z" fill="white"/>
</svg>
