<svg width="296" height="74" viewBox="0 0 296 74" fill="none" xmlns="http://www.w3.org/2000/svg">
<g filter="url(#filter0_d_298_90)">
<rect x="4" width="287.529" height="66" rx="30" fill="#FFC93D"/>
<path d="M101.124 10.5V26.25H99.6999V11.94H91.0545V26.25H89.6298V10.5H101.124Z" fill="black"/>
<path d="M109.637 26.3625C108.648 26.3625 107.757 26.1075 106.963 25.5975C106.17 25.0725 105.545 24.3525 105.09 23.4375C104.635 22.5225 104.407 21.4875 104.407 20.3325C104.407 19.1775 104.635 18.1425 105.09 17.2275C105.545 16.3125 106.17 15.6 106.963 15.09C107.757 14.58 108.648 14.325 109.637 14.325C110.626 14.325 111.517 14.58 112.311 15.09C113.104 15.6 113.722 16.3125 114.165 17.2275C114.62 18.1425 114.848 19.1775 114.848 20.3325C114.848 21.4875 114.62 22.5225 114.165 23.4375C113.722 24.3525 113.104 25.0725 112.311 25.5975C111.517 26.1075 110.626 26.3625 109.637 26.3625ZM109.637 24.945C110.366 24.945 111.016 24.7575 111.589 24.3825C112.174 23.9925 112.629 23.445 112.955 22.74C113.28 22.035 113.443 21.2325 113.443 20.3325C113.443 19.4325 113.28 18.63 112.955 17.925C112.629 17.22 112.174 16.68 111.589 16.305C111.016 15.915 110.366 15.72 109.637 15.72C108.909 15.72 108.251 15.915 107.666 16.305C107.094 16.68 106.638 17.22 106.3 17.925C105.975 18.63 105.812 19.4325 105.812 20.3325C105.812 21.2325 105.975 22.035 106.3 22.74C106.638 23.445 107.094 23.9925 107.666 24.3825C108.251 24.7575 108.909 24.945 109.637 24.945Z" fill="black"/>
<path d="M122.103 26.3625C121.088 26.3625 120.177 26.1075 119.37 25.5975C118.577 25.0875 117.952 24.375 117.497 23.46C117.041 22.53 116.814 21.4875 116.814 20.3325C116.814 19.1775 117.041 18.1425 117.497 17.2275C117.952 16.3125 118.577 15.6 119.37 15.09C120.177 14.58 121.088 14.325 122.103 14.325C122.987 14.325 123.774 14.5275 124.464 14.9325C125.166 15.3225 125.719 15.9 126.123 16.665L125.088 17.475C124.75 16.89 124.321 16.455 123.8 16.17C123.28 15.87 122.714 15.72 122.103 15.72C121.361 15.72 120.691 15.915 120.092 16.305C119.507 16.68 119.045 17.22 118.707 17.925C118.382 18.63 118.219 19.4325 118.219 20.3325C118.219 21.2475 118.382 22.0575 118.707 22.7625C119.045 23.4525 119.507 23.9925 120.092 24.3825C120.691 24.7575 121.361 24.945 122.103 24.945C122.714 24.945 123.28 24.8025 123.8 24.5175C124.321 24.2325 124.75 23.7975 125.088 23.2125L126.123 24.0225C125.719 24.7875 125.166 25.3725 124.464 25.7775C123.761 26.1675 122.974 26.3625 122.103 26.3625Z" fill="black"/>
<path d="M140.281 14.415V26.25H139.012V16.89L134.855 24.81H134.231L130.074 16.8675V26.25H128.806V14.415H130.211L134.563 22.9425L138.993 14.415H140.281Z" fill="black"/>
<path d="M148.459 26.3625C147.47 26.3625 146.579 26.1075 145.785 25.5975C144.991 25.0725 144.367 24.3525 143.911 23.4375C143.456 22.5225 143.228 21.4875 143.228 20.3325C143.228 19.1775 143.456 18.1425 143.911 17.2275C144.367 16.3125 144.991 15.6 145.785 15.09C146.579 14.58 147.47 14.325 148.459 14.325C149.447 14.325 150.339 14.58 151.132 15.09C151.926 15.6 152.544 16.3125 152.986 17.2275C153.442 18.1425 153.669 19.1775 153.669 20.3325C153.669 21.4875 153.442 22.5225 152.986 23.4375C152.544 24.3525 151.926 25.0725 151.132 25.5975C150.339 26.1075 149.447 26.3625 148.459 26.3625ZM148.459 24.945C149.187 24.945 149.838 24.7575 150.41 24.3825C150.996 23.9925 151.451 23.445 151.776 22.74C152.101 22.035 152.264 21.2325 152.264 20.3325C152.264 19.4325 152.101 18.63 151.776 17.925C151.451 17.22 150.996 16.68 150.41 16.305C149.838 15.915 149.187 15.72 148.459 15.72C147.73 15.72 147.073 15.915 146.487 16.305C145.915 16.68 145.46 17.22 145.121 17.925C144.796 18.63 144.634 19.4325 144.634 20.3325C144.634 21.2325 144.796 22.035 145.121 22.74C145.46 23.445 145.915 23.9925 146.487 24.3825C147.073 24.7575 147.73 24.945 148.459 24.945Z" fill="black"/>
<path d="M163.47 15.8325H159.587V26.25H158.201V15.8325H154.317V14.415H163.47V15.8325Z" fill="black"/>
<path d="M170.762 14.325C171.725 14.325 172.597 14.58 173.377 15.09C174.158 15.585 174.769 16.29 175.212 17.205C175.654 18.12 175.875 19.1625 175.875 20.3325C175.875 21.5175 175.654 22.5675 175.212 23.4825C174.769 24.3975 174.158 25.11 173.377 25.62C172.61 26.115 171.738 26.3625 170.762 26.3625C169.93 26.3625 169.175 26.1675 168.498 25.7775C167.835 25.3725 167.288 24.7875 166.859 24.0225V30.615H165.474V14.415H166.801V16.755C167.217 15.975 167.763 15.375 168.44 14.955C169.129 14.535 169.904 14.325 170.762 14.325ZM170.665 24.945C171.38 24.945 172.031 24.7575 172.616 24.3825C173.202 23.9925 173.657 23.445 173.982 22.74C174.321 22.035 174.49 21.2325 174.49 20.3325C174.49 19.4325 174.321 18.6375 173.982 17.9475C173.657 17.2425 173.202 16.695 172.616 16.305C172.031 15.915 171.38 15.72 170.665 15.72C169.936 15.72 169.279 15.915 168.694 16.305C168.121 16.695 167.666 17.2425 167.328 17.9475C167.002 18.6375 166.84 19.4325 166.84 20.3325C166.84 21.2325 167.002 22.035 167.328 22.74C167.666 23.445 168.121 23.9925 168.694 24.3825C169.279 24.7575 169.936 24.945 170.665 24.945Z" fill="black"/>
<path d="M187.83 20.8275H179.243C179.321 22.0575 179.731 23.055 180.472 23.82C181.214 24.57 182.151 24.945 183.282 24.945C183.92 24.945 184.505 24.8175 185.039 24.5625C185.572 24.2925 186.034 23.9025 186.424 23.3925L187.205 24.4275C186.75 25.0575 186.177 25.5375 185.488 25.8675C184.811 26.1975 184.063 26.3625 183.243 26.3625C182.19 26.3625 181.253 26.1075 180.433 25.5975C179.626 25.0725 178.995 24.3525 178.54 23.4375C178.085 22.5225 177.857 21.4875 177.857 20.3325C177.857 19.1775 178.072 18.1425 178.501 17.2275C178.943 16.3125 179.542 15.6 180.297 15.09C181.064 14.58 181.923 14.325 182.873 14.325C183.822 14.325 184.675 14.58 185.429 15.09C186.184 15.6 186.776 16.3125 187.205 17.2275C187.634 18.1275 187.849 19.1625 187.849 20.3325L187.83 20.8275ZM182.873 15.6975C181.884 15.6975 181.051 16.065 180.375 16.8C179.711 17.52 179.334 18.465 179.243 19.635H186.522C186.431 18.465 186.047 17.52 185.371 16.8C184.707 16.065 183.874 15.6975 182.873 15.6975Z" fill="black"/>
<path d="M197.68 15.8325H193.796V26.25H192.41V15.8325H188.527V14.415H197.68V15.8325Z" fill="black"/>
<path d="M204.093 18.6C205.381 18.615 206.357 18.945 207.021 19.59C207.697 20.235 208.036 21.165 208.036 22.38C208.036 23.64 207.671 24.6075 206.943 25.2825C206.227 25.9575 205.186 26.2875 203.82 26.2725L199.683 26.25V14.415H201.069V18.555L204.093 18.6ZM203.742 25.0575C204.692 25.0725 205.408 24.855 205.889 24.405C206.383 23.94 206.63 23.265 206.63 22.38C206.63 21.51 206.39 20.865 205.908 20.445C205.427 20.025 204.705 19.8075 203.742 19.7925L201.069 19.7475V25.0125L203.742 25.0575Z" fill="black"/>
<path d="M84.7685 41.415V53.25H83.3829V42.8325H76.9427V53.25H75.5571V41.415H84.7685Z" fill="black"/>
<path d="M92.9421 53.3625C91.9534 53.3625 91.0621 53.1075 90.2685 52.5975C89.4749 52.0725 88.8504 51.3525 88.395 50.4375C87.9397 49.5225 87.712 48.4875 87.712 47.3325C87.712 46.1775 87.9397 45.1425 88.395 44.2275C88.8504 43.3125 89.4749 42.6 90.2685 42.09C91.0621 41.58 91.9534 41.325 92.9421 41.325C93.9309 41.325 94.8221 41.58 95.6158 42.09C96.4094 42.6 97.0274 43.3125 97.4697 44.2275C97.9251 45.1425 98.1528 46.1775 98.1528 47.3325C98.1528 48.4875 97.9251 49.5225 97.4697 50.4375C97.0274 51.3525 96.4094 52.0725 95.6158 52.5975C94.8221 53.1075 93.9309 53.3625 92.9421 53.3625ZM92.9421 51.945C93.6707 51.945 94.3212 51.7575 94.8937 51.3825C95.4792 50.9925 95.9345 50.445 96.2598 49.74C96.585 49.035 96.7477 48.2325 96.7477 47.3325C96.7477 46.4325 96.585 45.63 96.2598 44.925C95.9345 44.22 95.4792 43.68 94.8937 43.305C94.3212 42.915 93.6707 42.72 92.9421 42.72C92.2136 42.72 91.5565 42.915 90.9711 43.305C90.3986 43.68 89.9432 44.22 89.605 44.925C89.2797 45.63 89.1171 46.4325 89.1171 47.3325C89.1171 48.2325 89.2797 49.035 89.605 49.74C89.9432 50.445 90.3986 50.9925 90.9711 51.3825C91.5565 51.7575 92.2136 51.945 92.9421 51.945Z" fill="black"/>
<path d="M105.408 53.3625C104.393 53.3625 103.482 53.1075 102.675 52.5975C101.882 52.0875 101.257 51.375 100.802 50.46C100.347 49.53 100.119 48.4875 100.119 47.3325C100.119 46.1775 100.347 45.1425 100.802 44.2275C101.257 43.3125 101.882 42.6 102.675 42.09C103.482 41.58 104.393 41.325 105.408 41.325C106.292 41.325 107.079 41.5275 107.769 41.9325C108.471 42.3225 109.024 42.9 109.428 43.665L108.393 44.475C108.055 43.89 107.626 43.455 107.105 43.17C106.585 42.87 106.019 42.72 105.408 42.72C104.666 42.72 103.996 42.915 103.397 43.305C102.812 43.68 102.35 44.22 102.012 44.925C101.687 45.63 101.524 46.4325 101.524 47.3325C101.524 48.2475 101.687 49.0575 102.012 49.7625C102.35 50.4525 102.812 50.9925 103.397 51.3825C103.996 51.7575 104.666 51.945 105.408 51.945C106.019 51.945 106.585 51.8025 107.105 51.5175C107.626 51.2325 108.055 50.7975 108.393 50.2125L109.428 51.0225C109.024 51.7875 108.471 52.3725 107.769 52.7775C107.066 53.1675 106.279 53.3625 105.408 53.3625Z" fill="black"/>
<path d="M120.916 47.8275H112.329C112.408 49.0575 112.817 50.055 113.559 50.82C114.301 51.57 115.237 51.945 116.369 51.945C117.007 51.945 117.592 51.8175 118.126 51.5625C118.659 51.2925 119.121 50.9025 119.511 50.3925L120.292 51.4275C119.836 52.0575 119.264 52.5375 118.574 52.8675C117.898 53.1975 117.15 53.3625 116.33 53.3625C115.276 53.3625 114.34 53.1075 113.52 52.5975C112.713 52.0725 112.082 51.3525 111.627 50.4375C111.172 49.5225 110.944 48.4875 110.944 47.3325C110.944 46.1775 111.159 45.1425 111.588 44.2275C112.03 43.3125 112.629 42.6 113.383 42.09C114.151 41.58 115.01 41.325 115.959 41.325C116.909 41.325 117.761 41.58 118.516 42.09C119.271 42.6 119.862 43.3125 120.292 44.2275C120.721 45.1275 120.936 46.1625 120.936 47.3325L120.916 47.8275ZM115.959 42.6975C114.971 42.6975 114.138 43.065 113.461 43.8C112.798 44.52 112.421 45.465 112.329 46.635H119.609C119.518 45.465 119.134 44.52 118.457 43.8C117.794 43.065 116.961 42.6975 115.959 42.6975Z" fill="black"/>
<path d="M138.171 41.415V53.25H124.003V41.415H125.389V51.855H130.424V41.415H131.809V51.855H136.786V41.415H138.171ZM139.752 51.855V55.8375H138.444V53.25H136.708V51.855H139.752Z" fill="black"/>
<path d="M145.66 41.325C147 41.325 148.027 41.715 148.743 42.495C149.459 43.26 149.816 44.4 149.816 45.915V53.25H148.489V51.405C148.177 52.02 147.715 52.5 147.104 52.845C146.505 53.19 145.79 53.3625 144.957 53.3625C143.812 53.3625 142.901 53.0475 142.225 52.4175C141.548 51.7875 141.21 50.955 141.21 49.92C141.21 48.915 141.522 48.105 142.147 47.49C142.784 46.875 143.793 46.5675 145.172 46.5675H148.431V45.8475C148.431 44.8275 148.184 44.055 147.689 43.53C147.195 42.99 146.473 42.72 145.523 42.72C144.872 42.72 144.248 42.8475 143.649 43.1025C143.051 43.3425 142.537 43.68 142.108 44.115L141.483 42.9225C142.004 42.4125 142.628 42.0225 143.357 41.7525C144.085 41.4675 144.853 41.325 145.66 41.325ZM145.172 52.1025C145.952 52.1025 146.622 51.9 147.182 51.495C147.741 51.075 148.158 50.475 148.431 49.695V47.76H145.211C143.454 47.76 142.576 48.465 142.576 49.875C142.576 50.565 142.804 51.1125 143.259 51.5175C143.715 51.9075 144.352 52.1025 145.172 52.1025Z" fill="black"/>
<path d="M162.482 47.8275H153.895C153.973 49.0575 154.383 50.055 155.125 50.82C155.866 51.57 156.803 51.945 157.935 51.945C158.573 51.945 159.158 51.8175 159.691 51.5625C160.225 51.2925 160.687 50.9025 161.077 50.3925L161.858 51.4275C161.402 52.0575 160.83 52.5375 160.14 52.8675C159.464 53.1975 158.716 53.3625 157.896 53.3625C156.842 53.3625 155.905 53.1075 155.086 52.5975C154.279 52.0725 153.648 51.3525 153.193 50.4375C152.737 49.5225 152.51 48.4875 152.51 47.3325C152.51 46.1775 152.724 45.1425 153.154 44.2275C153.596 43.3125 154.195 42.6 154.949 42.09C155.717 41.58 156.575 41.325 157.525 41.325C158.475 41.325 159.327 41.58 160.082 42.09C160.836 42.6 161.428 43.3125 161.858 44.2275C162.287 45.1275 162.502 46.1625 162.502 47.3325L162.482 47.8275ZM157.525 42.6975C156.536 42.6975 155.704 43.065 155.027 43.8C154.364 44.52 153.986 45.465 153.895 46.635H161.175C161.084 45.465 160.7 44.52 160.023 43.8C159.36 43.065 158.527 42.6975 157.525 42.6975Z" fill="black"/>
<path d="M177.044 41.415V53.25H175.775V43.89L171.619 51.81H170.994L166.837 43.8675V53.25H165.569V41.415H166.974L171.326 49.9425L175.756 41.415H177.044Z" fill="black"/>
<path d="M185.222 53.3625C184.233 53.3625 183.342 53.1075 182.548 52.5975C181.755 52.0725 181.13 51.3525 180.675 50.4375C180.219 49.5225 179.992 48.4875 179.992 47.3325C179.992 46.1775 180.219 45.1425 180.675 44.2275C181.13 43.3125 181.755 42.6 182.548 42.09C183.342 41.58 184.233 41.325 185.222 41.325C186.211 41.325 187.102 41.58 187.895 42.09C188.689 42.6 189.307 43.3125 189.749 44.2275C190.205 45.1425 190.432 46.1775 190.432 47.3325C190.432 48.4875 190.205 49.5225 189.749 50.4375C189.307 51.3525 188.689 52.0725 187.895 52.5975C187.102 53.1075 186.211 53.3625 185.222 53.3625ZM185.222 51.945C185.95 51.945 186.601 51.7575 187.173 51.3825C187.759 50.9925 188.214 50.445 188.539 49.74C188.865 49.035 189.027 48.2325 189.027 47.3325C189.027 46.4325 188.865 45.63 188.539 44.925C188.214 44.22 187.759 43.68 187.173 43.305C186.601 42.915 185.95 42.72 185.222 42.72C184.493 42.72 183.836 42.915 183.251 43.305C182.678 43.68 182.223 44.22 181.885 44.925C181.559 45.63 181.397 46.4325 181.397 47.3325C181.397 48.2325 181.559 49.035 181.885 49.74C182.223 50.445 182.678 50.9925 183.251 51.3825C183.836 51.7575 184.493 51.945 185.222 51.945Z" fill="black"/>
<path d="M197.687 53.3625C196.672 53.3625 195.762 53.1075 194.955 52.5975C194.161 52.0875 193.537 51.375 193.081 50.46C192.626 49.53 192.398 48.4875 192.398 47.3325C192.398 46.1775 192.626 45.1425 193.081 44.2275C193.537 43.3125 194.161 42.6 194.955 42.09C195.762 41.58 196.672 41.325 197.687 41.325C198.572 41.325 199.359 41.5275 200.049 41.9325C200.751 42.3225 201.304 42.9 201.707 43.665L200.673 44.475C200.335 43.89 199.905 43.455 199.385 43.17C198.865 42.87 198.299 42.72 197.687 42.72C196.946 42.72 196.276 42.915 195.677 43.305C195.092 43.68 194.63 44.22 194.291 44.925C193.966 45.63 193.804 46.4325 193.804 47.3325C193.804 48.2475 193.966 49.0575 194.291 49.7625C194.63 50.4525 195.092 50.9925 195.677 51.3825C196.276 51.7575 196.946 51.945 197.687 51.945C198.299 51.945 198.865 51.8025 199.385 51.5175C199.905 51.2325 200.335 50.7975 200.673 50.2125L201.707 51.0225C201.304 51.7875 200.751 52.3725 200.049 52.7775C199.346 53.1675 198.559 53.3625 197.687 53.3625Z" fill="black"/>
<path d="M211.42 42.8325H207.537V53.25H206.151V42.8325H202.268V41.415H211.42V42.8325Z" fill="black"/>
<path d="M217.834 45.6C219.122 45.615 220.098 45.945 220.762 46.59C221.438 47.235 221.777 48.165 221.777 49.38C221.777 50.64 221.412 51.6075 220.684 52.2825C219.968 52.9575 218.927 53.2875 217.561 53.2725L213.424 53.25V41.415H214.809V45.555L217.834 45.6ZM217.483 52.0575C218.433 52.0725 219.148 51.855 219.63 51.405C220.124 50.94 220.371 50.265 220.371 49.38C220.371 48.51 220.131 47.865 219.649 47.445C219.168 47.025 218.446 46.8075 217.483 46.7925L214.809 46.7475V52.0125L217.483 52.0575Z" fill="black"/>
</g>
<defs>
<filter id="filter0_d_298_90" x="0" y="0" width="295.529" height="74" filterUnits="userSpaceOnUse" color-interpolation-filters="sRGB">
<feFlood flood-opacity="0" result="BackgroundImageFix"/>
<feColorMatrix in="SourceAlpha" type="matrix" values="0 0 0 0 0 0 0 0 0 0 0 0 0 0 0 0 0 0 127 0" result="hardAlpha"/>
<feOffset dy="4"/>
<feGaussianBlur stdDeviation="2"/>
<feComposite in2="hardAlpha" operator="out"/>
<feColorMatrix type="matrix" values="0 0 0 0 0 0 0 0 0 0 0 0 0 0 0 0 0 0 0.25 0"/>
<feBlend mode="normal" in2="BackgroundImageFix" result="effect1_dropShadow_298_90"/>
<feBlend mode="normal" in="SourceGraphic" in2="effect1_dropShadow_298_90" result="shape"/>
</filter>
</defs>
</svg>
